<svg xmlns="http://www.w3.org/2000/svg" width="512" height="512" viewBox="0 0 512 512" version="1.1"><path d="" stroke="none" fill="#080404" fill-rule="evenodd"/><path d="M 93.500 1.404 C 80.619 5.495, 70.838 13.948, 65.113 25.935 L 61.500 33.500 61.500 256 L 61.500 478.500 65.113 486.065 C 69.878 496.043, 76.957 503.122, 86.935 507.887 L 94.500 511.500 256 511.500 L 417.500 511.500 425.065 507.887 C 435.043 503.122, 442.122 496.043, 446.887 486.065 L 450.500 478.500 450.762 314.250 L 451.023 150 398.762 149.980 C 369.326 149.969, 343.479 149.524, 339.583 148.961 C 320.551 146.210, 304.790 130.449, 302.039 111.417 C 301.476 107.521, 301.031 81.678, 301.020 52.250 L 301 0 199.250 0.067 C 119.897 0.119, 96.620 0.413, 93.500 1.404 M 331 59.105 L 331 109.704 333.253 113.048 C 338.144 120.305, 335.905 120.049, 391.862 119.759 L 442.007 119.500 386.504 64.003 L 331 8.507 331 59.105 M 162.170 211.706 C 160.888 211.956, 158.146 213.854, 156.076 215.924 C 149.721 222.279, 149.724 229.724, 156.084 236.084 C 158.865 238.865, 160.992 240.019, 164.178 240.476 C 166.555 240.817, 209.450 240.962, 259.500 240.798 L 350.500 240.500 353.618 238.276 C 358.267 234.960, 360.380 231.123, 360.380 226 C 360.380 220.877, 358.267 217.040, 353.618 213.724 L 350.500 211.500 257.500 211.376 C 206.350 211.308, 163.451 211.457, 162.170 211.706 M 162.170 271.706 C 160.888 271.956, 158.146 273.854, 156.076 275.924 C 149.721 282.279, 149.724 289.724, 156.084 296.084 C 158.865 298.865, 160.992 300.019, 164.178 300.476 C 166.555 300.817, 209.450 300.962, 259.500 300.798 L 350.500 300.500 353.618 298.276 C 358.267 294.960, 360.380 291.123, 360.380 286 C 360.380 280.877, 358.267 277.040, 353.618 273.724 L 350.500 271.500 257.500 271.376 C 206.350 271.308, 163.451 271.457, 162.170 271.706 M 162.170 331.706 C 160.888 331.956, 158.146 333.854, 156.076 335.924 C 149.721 342.279, 149.724 349.724, 156.084 356.084 C 158.865 358.865, 160.992 360.019, 164.178 360.476 C 166.555 360.817, 209.450 360.962, 259.500 360.798 L 350.500 360.500 353.618 358.276 C 358.267 354.960, 360.380 351.123, 360.380 346 C 360.380 340.877, 358.267 337.040, 353.618 333.724 L 350.500 331.500 257.500 331.376 C 206.350 331.308, 163.451 331.457, 162.170 331.706 M 162.170 391.702 C 160.888 391.954, 158.146 393.854, 156.076 395.924 C 149.721 402.279, 149.724 409.724, 156.084 416.084 C 158.861 418.861, 160.996 420.021, 164.178 420.481 C 166.555 420.824, 195.950 420.969, 229.500 420.803 C 287.295 420.516, 290.646 420.401, 293.276 418.618 C 297.970 415.436, 300.385 411.149, 300.385 406 C 300.385 400.851, 297.970 396.564, 293.276 393.382 C 290.636 391.592, 287.415 391.494, 227.500 391.372 C 192.850 391.301, 163.451 391.450, 162.170 391.702" stroke="none" fill-rule="evenodd"/></svg>
