<svg xmlns="http://www.w3.org/2000/svg" width="512" height="512" viewBox="0 0 512 512" version="1.1"><path d="" stroke="none" fill="#080404" fill-rule="evenodd"/><path d="M 232.951 33.826 C 214.209 40.018, 188.488 58.824, 173.863 77.028 C 154.940 100.583, 145.016 128.626, 151.560 140.054 C 154.427 145.061, 160.771 147.896, 170 148.297 C 174.125 148.476, 178.175 148.913, 179 149.267 C 180.144 149.758, 181.962 146.885, 186.658 137.166 C 190.045 130.156, 195.628 120.614, 199.064 115.961 C 215.303 93.972, 238.454 75.161, 261.247 65.436 C 266.847 63.047, 267.892 62.237, 267.395 60.671 C 267.066 59.633, 266.704 55.570, 266.591 51.642 C 266.345 43.084, 263.783 37.431, 258.846 34.546 C 254.029 31.732, 240.432 31.354, 232.951 33.826 M 271.338 75.362 C 256.832 80.157, 241.786 90.482, 225.732 106.658 C 203.502 129.057, 191.014 151.240, 190.700 168.888 C 190.449 182.982, 196.878 189.424, 211.254 189.484 L 219.007 189.516 259.758 230.258 C 282.171 252.666, 300.845 271, 301.255 271 C 301.665 271, 302 270.405, 302 269.677 C 302 267.490, 310.659 250.397, 315.145 243.729 C 333.228 216.851, 360.374 194.214, 386.946 183.854 C 389.265 182.950, 387.274 180.782, 348.454 141.954 L 307.516 101.007 307.458 93.254 C 307.349 78.615, 302.395 73.776, 287 73.273 C 280.216 73.051, 277.054 73.473, 271.338 75.362 M 399.405 194.428 C 356.105 204.257, 303.383 267.287, 312.430 298.409 C 314.383 305.127, 318.806 308.998, 325.374 309.739 L 329.735 310.230 331.959 302.908 C 342.960 266.690, 384.821 224.806, 420.865 213.953 L 428.230 211.735 427.759 207.552 C 427.499 205.251, 426.479 202.134, 425.491 200.626 C 421.444 194.449, 410.629 191.880, 399.405 194.428 M 428 225.983 C 401.836 232.932, 370.514 258.980, 353.572 287.877 C 345.852 301.045, 340.655 318.504, 342.393 325.428 L 343.011 327.893 348.756 325.054 C 357.072 320.944, 366.933 318.145, 377.475 316.901 C 386.334 315.857, 390.965 316.120, 407.669 318.618 L 411.838 319.242 424.261 306.871 C 437.412 293.775, 443.480 285.520, 451.128 270.317 C 459.119 254.432, 461.345 237.957, 456.397 231.329 C 451.493 224.761, 440.439 222.680, 428 225.983 M 149.007 310.830 C 59.087 390.134, 57.453 391.641, 54.007 398.410 C 50.759 404.789, 50.500 405.971, 50.500 414.399 C 50.500 422.274, 50.877 424.308, 53.302 429.500 C 62.901 450.052, 88.026 457.343, 106.462 444.928 C 109.993 442.550, 269.238 262.831, 269.771 260.622 C 269.920 260.005, 263.395 252.893, 255.271 244.818 L 240.500 230.137 149.007 310.830 M 366.500 332.004 C 353.946 335.384, 343.513 341.456, 333.901 350.980 C 324.220 360.573, 318.541 369.423, 314.318 381.500 C 311.720 388.932, 311.521 390.601, 311.521 405 C 311.521 419.399, 311.720 421.068, 314.318 428.500 C 318.534 440.556, 324.222 449.427, 333.901 459.041 C 341.030 466.121, 344.124 468.373, 352 472.210 C 364.213 478.161, 372.005 480, 385 480 C 397.995 480, 405.787 478.161, 418 472.210 C 434.889 463.981, 448.998 447.615, 455.682 428.500 C 458.280 421.068, 458.479 419.399, 458.479 405 C 458.479 390.601, 458.280 388.932, 455.682 381.500 C 451.466 369.444, 445.778 360.573, 436.099 350.959 C 428.970 343.879, 425.876 341.627, 418 337.790 C 412.775 335.244, 405.546 332.450, 401.936 331.581 C 392.760 329.371, 375.518 329.577, 366.500 332.004 M 395.686 395.507 L 373.779 418.015 364.875 409.757 C 353.217 398.946, 350.184 396.814, 347.581 397.604 C 344.048 398.678, 342 401.172, 342 404.404 C 342 406.948, 343.288 408.713, 349.250 414.343 C 367.113 431.210, 371.004 434.333, 374.149 434.333 C 376.803 434.333, 380.489 431.036, 402.599 408.877 C 425.238 386.188, 428 383.071, 428 380.210 C 428 376.047, 424.955 373, 420.796 373 C 417.936 373, 415.250 375.407, 395.686 395.507" stroke="none"  fill-rule="evenodd"/></svg>
