<svg xmlns="http://www.w3.org/2000/svg" width="512" height="512" viewBox="0 0 512 512" version="1.1"><path d="" stroke="none" fill="#080404" fill-rule="evenodd"/><path d="M 271.500 13.596 C 270.400 13.860, 266.458 14.784, 262.741 15.648 C 259.024 16.513, 255.706 17.666, 255.369 18.212 C 255.032 18.757, 257.696 22.196, 261.290 25.852 C 302.498 67.777, 309.870 135.270, 278.871 186.805 C 275.939 191.679, 274.004 196.017, 274.188 197.305 C 274.493 199.449, 274.816 199.497, 288 199.371 C 303.852 199.220, 312.774 197.239, 325.928 190.950 C 380.235 164.988, 396.760 96.877, 360.314 49.224 C 348.354 33.588, 331.709 22.203, 312.297 16.380 C 304.828 14.139, 301.236 13.694, 288.500 13.428 C 280.250 13.256, 272.600 13.332, 271.500 13.596 M 149.500 14.654 C 122.485 20.360, 108.706 27.387, 91.954 44 C 80.187 55.669, 73.942 64.807, 68.336 78.558 C 62.586 92.661, 60.724 103.873, 61.289 121 C 62.003 142.661, 66.607 157.488, 77.953 174.658 C 102.908 212.423, 149.569 229.801, 192.775 217.421 C 227.876 207.363, 253.668 181.560, 264.665 145.500 C 267.246 137.037, 267.410 135.366, 267.410 117.500 C 267.410 99.611, 267.249 97.979, 264.666 89.600 C 258.677 70.174, 250.263 56.352, 236.171 42.785 C 216.032 23.397, 192.108 13.898, 164 14.129 C 157.125 14.186, 150.600 14.422, 149.500 14.654 M 366.405 200.109 C 363.281 203.569, 345.923 214.705, 337.937 218.374 C 327.678 223.087, 316.007 226.609, 305.967 228.022 C 301.310 228.677, 296.890 229.394, 296.145 229.615 C 295.295 229.868, 297.908 233.302, 303.145 238.820 C 310.015 246.056, 321.703 261.087, 324.917 266.819 C 325.485 267.832, 327.031 267.338, 331.578 264.693 C 344.575 257.130, 361.143 251.287, 377.393 248.534 C 390.230 246.360, 411.768 246.357, 424.512 248.528 C 429.820 249.432, 434.321 250.013, 434.514 249.819 C 435.316 249.018, 418.531 230.747, 411.316 224.566 C 398.525 213.609, 374.144 198, 369.820 198 C 368.989 198, 367.453 198.949, 366.405 200.109 M 80.458 232.930 C 44.243 255.367, 16.863 294.679, 5.536 340.500 C 0.677 360.159, 0.693 359.881, 0.285 431.250 L -0.103 499 156.500 499 L 313.103 499 303.881 490.250 C 291.643 478.638, 281.245 464.505, 273.965 449.587 C 264.094 429.360, 259.928 411.313, 259.862 388.500 C 259.758 352.772, 270.946 322.626, 294.625 294.826 L 302.013 286.151 295.821 276.826 C 287.299 263.991, 268.585 245.395, 255.500 236.759 C 240.423 226.807, 241.907 227.049, 232.006 232.937 C 217.516 241.556, 200.481 247.504, 182.950 250.068 C 169.955 251.968, 145.814 250.761, 133.137 247.578 C 120.560 244.420, 106.484 238.658, 96.417 232.546 C 92.299 230.046, 88.814 228, 88.673 228 C 88.532 228, 84.835 230.219, 80.458 232.930 M 386.500 277.127 C 363.092 280.051, 339.164 291.890, 322.027 309.027 C 279.211 351.843, 278.284 420.679, 319.935 464.319 C 324.040 468.620, 330.346 474.359, 333.949 477.074 C 347.518 487.296, 367.377 495.630, 383.934 498.051 C 395.321 499.716, 417.219 498.755, 427.635 496.133 C 467.268 486.157, 498.488 454.883, 509.129 414.500 C 511.207 406.610, 511.498 403.279, 511.482 387.500 C 511.465 370.926, 511.244 368.708, 508.689 359.500 C 493.552 304.941, 442.009 270.194, 386.500 277.127 M 386 348 L 386 373 361 373 L 336 373 336 388 L 336 403 361 403 L 386 403 386 427.500 L 386 452 401 452 L 416 452 416 427.500 L 416 403 440.500 403 L 465 403 465 388 L 465 373 440.500 373 L 416 373 416 348 L 416 323 401 323 L 386 323 386 348" stroke="none"  fill-rule="evenodd"/></svg>
