<svg xmlns="http://www.w3.org/2000/svg" width="512" height="512" viewBox="0 0 512 512" version="1.1"><path d="" stroke="none" fill="#080404" fill-rule="evenodd"/><path d="M 243.539 33.044 C 223.585 36.180, 206.688 45.175, 192.305 60.316 C 183.511 69.574, 177.303 79.953, 172.886 92.781 C 169.597 102.331, 169.539 102.796, 169.560 119.500 C 169.581 135.453, 169.756 137.024, 172.408 145 C 177.422 160.083, 184.095 171.137, 194.405 181.436 C 228.307 215.300, 283.693 215.300, 317.595 181.436 C 327.994 171.048, 334.727 159.848, 339.499 145 C 342.857 134.549, 344.019 115.960, 342.020 104.634 C 339.077 87.954, 331.299 72.531, 319.640 60.258 C 307.398 47.371, 293.557 39.108, 277.198 34.922 C 268.179 32.614, 252.012 31.712, 243.539 33.044 M 70 97.068 C 60.434 98.734, 48.649 105.134, 41.113 112.757 C 30.087 123.910, 25 136.141, 25 151.500 C 25 167.114, 30.134 179.362, 41.389 190.600 C 62.915 212.093, 95.645 212.450, 117.924 191.433 C 129.260 180.739, 135 167.316, 135 151.500 C 135 132.712, 125.937 115.790, 110.323 105.426 C 99.299 98.109, 83.195 94.771, 70 97.068 M 422 97.068 C 412.434 98.734, 400.649 105.134, 393.113 112.757 C 382.087 123.910, 377 136.141, 377 151.500 C 377 167.114, 382.134 179.362, 393.389 190.600 C 414.915 212.093, 447.645 212.450, 469.924 191.433 C 481.260 180.739, 487 167.316, 487 151.500 C 487 132.712, 477.937 115.790, 462.323 105.426 C 451.299 98.109, 435.195 94.771, 422 97.068 M 239.295 240.040 C 212.977 241.826, 189.504 249.779, 171.388 263.045 C 140.022 286.015, 125.019 313.567, 121.044 355.500 C 119.837 368.241, 119.742 421.394, 120.892 440.667 C 121.584 452.269, 122.016 454.503, 124.525 459.461 C 128.016 466.361, 134.307 472.316, 141.825 475.837 L 147.500 478.494 232.500 479.329 C 316.236 480.151, 351.512 479.520, 364.500 476.968 C 376.761 474.558, 384.485 468.062, 389.095 456.282 C 391.350 450.520, 391.357 450.326, 391.157 399.755 C 390.940 344.966, 390.552 339.882, 385.409 324.455 C 379.537 306.840, 370.100 291.261, 357.022 277.594 C 341.880 261.770, 323.015 249.893, 304.495 244.527 C 291.550 240.775, 260.221 238.619, 239.295 240.040 M 55.500 241.412 C 31.272 246.130, 12.702 261.875, 3.628 285.392 L 0.500 293.500 0.500 360 L 0.500 426.500 2.700 430.613 C 3.910 432.874, 7.224 436.814, 10.064 439.368 C 18.315 446.786, 20.180 447.072, 58.370 446.764 L 91.132 446.500 91.039 406.500 C 90.988 384.500, 91.436 360.875, 92.034 354 C 95.454 314.676, 105.899 289.243, 130.469 260.417 L 134.437 255.760 131.469 253.389 C 126.523 249.440, 117.904 245.262, 109.993 242.981 C 103.724 241.174, 99.233 240.758, 82.500 240.435 C 68.283 240.161, 60.476 240.443, 55.500 241.412 M 412 240.980 C 405.012 241.892, 395.716 244.597, 390.530 247.229 C 385.363 249.851, 377.999 254.889, 378.004 255.798 C 378.006 256.184, 380.938 259.875, 384.518 264 C 406.386 289.194, 416.796 315.594, 420.008 354 C 420.583 360.875, 421.012 384.500, 420.961 406.500 L 420.868 446.500 453.129 446.764 C 489.680 447.063, 492.429 446.682, 500.664 440.170 C 503.378 438.023, 506.816 433.966, 508.500 430.922 L 511.500 425.500 511.500 359.500 L 511.500 293.500 508.372 285.392 C 499.199 261.618, 480.417 245.851, 456 241.428 C 448.072 239.992, 421.634 239.723, 412 240.980" stroke="none" fill-rule="evenodd"/></svg>
