<svg xmlns="http://www.w3.org/2000/svg" width="512" height="512" viewBox="0 0 512 512" version="1.1"><path d="" stroke="none" fill="#080404" fill-rule="evenodd"/><path d="M 232.951 33.826 C 214.209 40.018, 188.488 58.824, 173.863 77.028 C 154.940 100.583, 145.016 128.626, 151.560 140.054 C 154.427 145.061, 160.771 147.896, 170 148.297 C 174.125 148.476, 178.175 148.913, 179 149.267 C 180.144 149.758, 181.962 146.885, 186.658 137.166 C 190.045 130.156, 195.628 120.614, 199.064 115.961 C 215.303 93.972, 238.454 75.161, 261.247 65.436 C 266.847 63.047, 267.892 62.237, 267.395 60.671 C 267.066 59.633, 266.704 55.570, 266.591 51.642 C 266.345 43.084, 263.783 37.431, 258.846 34.546 C 254.029 31.732, 240.432 31.354, 232.951 33.826 M 271.338 75.362 C 256.832 80.157, 241.786 90.482, 225.732 106.658 C 203.502 129.057, 191.014 151.240, 190.700 168.888 C 190.449 182.982, 196.878 189.424, 211.254 189.484 L 219.007 189.516 259.758 230.258 C 282.171 252.666, 300.845 271, 301.255 271 C 301.665 271, 302 270.405, 302 269.677 C 302 267.490, 310.659 250.397, 315.145 243.729 C 333.228 216.851, 360.374 194.214, 386.946 183.854 C 389.265 182.950, 387.274 180.782, 348.454 141.954 L 307.516 101.007 307.458 93.254 C 307.349 78.615, 302.395 73.776, 287 73.273 C 280.216 73.051, 277.054 73.473, 271.338 75.362 M 399.405 194.428 C 356.105 204.257, 303.383 267.287, 312.430 298.409 C 314.383 305.127, 318.806 308.998, 325.374 309.739 L 329.735 310.230 331.959 302.908 C 342.960 266.690, 384.821 224.806, 420.865 213.953 L 428.230 211.735 427.759 207.552 C 427.499 205.251, 426.479 202.134, 425.491 200.626 C 421.444 194.449, 410.629 191.880, 399.405 194.428 M 428 225.983 C 401.836 232.932, 370.514 258.980, 353.572 287.877 C 345.852 301.045, 340.655 318.504, 342.393 325.428 L 343.011 327.893 348.756 325.054 C 357.072 320.944, 366.933 318.145, 377.475 316.901 C 386.334 315.857, 390.965 316.120, 407.669 318.618 L 411.838 319.242 424.261 306.871 C 437.412 293.775, 443.480 285.520, 451.128 270.317 C 459.119 254.432, 461.345 237.957, 456.397 231.329 C 451.493 224.761, 440.439 222.680, 428 225.983 M 149.007 310.830 C 59.087 390.134, 57.453 391.641, 54.007 398.410 C 50.759 404.789, 50.500 405.971, 50.500 414.399 C 50.500 422.274, 50.877 424.308, 53.302 429.500 C 62.901 450.052, 88.026 457.343, 106.462 444.928 C 109.993 442.550, 269.238 262.831, 269.771 260.622 C 269.920 260.005, 263.395 252.893, 255.271 244.818 L 240.500 230.137 149.007 310.830 M 379 330.900 C 379 331.772, 393.992 331.341, 394.889 330.444 C 395.134 330.200, 391.658 330, 387.167 330 C 382.675 330, 379 330.405, 379 330.900 M 368.216 338.019 C 338.017 345.931, 317 373.631, 317 405.521 L 317 414.723 314.500 414.245 C 313.041 413.966, 312 414.232, 312 414.883 C 312 415.498, 313.250 416, 314.779 416 C 317.386 416, 317.670 416.440, 319.403 423.166 C 324.251 441.985, 337.541 458.146, 355.500 467.064 C 400.248 489.283, 453 455.703, 453 405 C 453 360.315, 410.691 326.890, 368.216 338.019 M 378.826 363.712 C 373.138 367.241, 373.045 369.032, 376.808 402.393 C 379.464 425.937, 379.543 426.317, 382.252 428.338 L 385 430.391 387.748 428.338 C 390.457 426.317, 390.536 425.937, 393.192 402.393 C 396.236 375.411, 396.451 371.084, 394.915 367.712 C 392.529 362.476, 384.169 360.397, 378.826 363.712 M 380.333 439.615 C 378.795 441.961, 378.771 442.502, 380.098 444.865 C 381.246 446.910, 382.343 447.500, 385 447.500 C 387.657 447.500, 388.754 446.910, 389.902 444.865 C 391.229 442.502, 391.205 441.961, 389.667 439.615 C 388.460 437.772, 387.082 437, 385 437 C 382.918 437, 381.540 437.772, 380.333 439.615 M 387 478.510 L 383.500 479.848 389.950 479.924 C 393.749 479.969, 396.010 479.635, 395.450 479.112 C 393.625 477.407, 390.473 477.182, 387 478.510" stroke="none" fill-rule="evenodd"/></svg>
