<svg xmlns="http://www.w3.org/2000/svg" width="512" height="512" viewBox="0 0 512 512" version="1.1"><path d="" stroke="none" fill="#080404" fill-rule="evenodd"/><path d="M 240.776 15.184 L 240.500 30.368 233.178 31.601 C 218.570 34.060, 201.683 40.989, 186.500 50.753 C 182.650 53.229, 171.625 61.008, 162 68.040 C 139.814 84.249, 129.510 90.740, 114.500 97.964 C 86.786 111.302, 59.100 117.722, 19.500 119.996 C 10.150 120.533, 1.938 120.978, 1.250 120.986 C 0.306 120.997, 0 124.705, 0 136.153 L 0 151.305 29.750 150.646 C 46.113 150.284, 63.617 149.706, 68.648 149.361 L 77.796 148.734 56.112 224.617 L 34.427 300.500 17.214 300.774 L -0 301.047 0.012 312.774 C 0.031 331.811, 4.737 344.162, 16.959 357.249 C 32.819 374.231, 55.316 385.201, 83.436 389.663 C 98.184 392.003, 124.856 391.058, 139 387.695 C 170.032 380.317, 193.115 364.528, 204.478 342.908 C 209.510 333.334, 211 326.460, 211 312.814 L 211 301.048 194.286 300.774 L 177.572 300.500 154.932 221.271 C 135.815 154.372, 132.542 141.972, 133.896 141.590 C 134.778 141.341, 138.200 140.615, 141.500 139.977 C 144.800 139.338, 157.850 136.396, 170.500 133.438 C 183.150 130.481, 197.100 127.364, 201.500 126.511 C 209.711 124.921, 233.339 122.027, 238.250 122.010 L 241 122 241 275.339 L 241 428.678 179 470 C 144.900 492.727, 117 511.475, 117 511.661 C 117 511.848, 179.887 512, 256.750 511.999 L 396.500 511.998 333.778 470.249 L 271.056 428.500 271.028 275.250 L 271 122 273.394 122 C 278.192 122, 296.726 124.099, 305.500 125.636 C 310.450 126.503, 325.750 129.823, 339.500 133.014 C 353.250 136.204, 367.200 139.337, 370.500 139.976 C 373.800 140.615, 377.222 141.341, 378.104 141.590 C 379.458 141.972, 376.185 154.372, 357.068 221.271 L 334.428 300.500 317.603 300.775 L 300.779 301.049 301.194 315.275 C 301.557 327.732, 301.931 330.280, 304.200 335.779 C 314.715 361.260, 339.076 379.676, 372.839 387.668 C 387.163 391.059, 413.764 392.011, 428.564 389.663 C 456.719 385.195, 479.179 374.234, 495.093 357.193 C 502.374 349.397, 509.180 337.307, 510.547 329.739 C 510.921 327.670, 511.626 325.731, 512.113 325.430 C 512.601 325.129, 513 319.396, 513.001 312.691 L 513.001 300.500 495.289 300.500 L 477.577 300.500 455.907 224.678 L 434.238 148.855 450.369 149.678 C 459.241 150.130, 476.850 150.500, 489.500 150.500 L 512.500 150.500 512.776 135.175 C 512.950 125.573, 512.695 120.071, 512.093 120.442 C 510.678 121.317, 476.533 119.199, 463.641 117.437 C 437.654 113.885, 411.426 105.723, 391 94.831 C 378.338 88.080, 370.821 83.160, 350 68 C 340.375 60.992, 329.350 53.231, 325.500 50.755 C 310.323 40.992, 293.432 34.060, 278.822 31.601 L 271.500 30.368 271.224 15.184 L 270.948 -0 256 -0 L 241.052 0 240.776 15.184 M 0.402 136 C 0.402 144.525, 0.556 148.012, 0.743 143.750 C 0.931 139.488, 0.931 132.512, 0.743 128.250 C 0.556 123.987, 0.402 127.475, 0.402 136 M 85.852 232.500 L 66.285 301 106 301 L 145.715 301 126.148 232.500 C 115.386 194.825, 106.319 164, 106 164 C 105.681 164, 96.614 194.825, 85.852 232.500 M 385.852 232.500 L 366.285 301 406 301 L 445.715 301 426.148 232.500 C 415.386 194.825, 406.319 164, 406 164 C 405.681 164, 396.614 194.825, 385.852 232.500 M 0.389 313.500 C 0.390 320.650, 0.550 323.444, 0.742 319.708 C 0.935 315.973, 0.934 310.123, 0.739 306.708 C 0.545 303.294, 0.387 306.350, 0.389 313.500" stroke="none" fill-rule="evenodd"/></svg>
