<svg xmlns="http://www.w3.org/2000/svg" width="512" height="512" viewBox="0 0 512 512" version="1.1"><path d="M 232.951 33.826 C 214.209 40.018, 188.488 58.824, 173.863 77.028 C 154.940 100.583, 145.016 128.626, 151.560 140.054 C 154.427 145.061, 160.771 147.896, 170 148.297 C 174.125 148.476, 178.175 148.913, 179 149.267 C 180.144 149.758, 181.962 146.885, 186.658 137.166 C 190.045 130.156, 195.628 120.614, 199.064 115.961 C 215.303 93.972, 238.454 75.161, 261.247 65.436 C 266.847 63.047, 267.892 62.237, 267.395 60.671 C 267.066 59.633, 266.704 55.570, 266.591 51.642 C 266.345 43.084, 263.783 37.431, 258.846 34.546 C 254.029 31.732, 240.432 31.354, 232.951 33.826 M 271.338 75.362 C 256.832 80.157, 241.786 90.482, 225.732 106.658 C 203.502 129.057, 191.014 151.240, 190.700 168.888 C 190.449 182.982, 196.878 189.424, 211.254 189.484 L 219.007 189.516 259.758 230.258 C 282.171 252.666, 300.845 271, 301.255 271 C 301.665 271, 302 270.405, 302 269.677 C 302 267.490, 310.659 250.397, 315.145 243.729 C 333.228 216.851, 360.374 194.214, 386.946 183.854 C 389.265 182.950, 387.274 180.782, 348.454 141.954 L 307.516 101.007 307.458 93.254 C 307.349 78.615, 302.395 73.776, 287 73.273 C 280.216 73.051, 277.054 73.473, 271.338 75.362 M 399.405 194.428 C 356.105 204.257, 303.383 267.287, 312.430 298.409 C 314.383 305.127, 318.806 308.998, 325.374 309.739 L 329.735 310.230 331.959 302.908 C 342.960 266.690, 384.821 224.806, 420.865 213.953 L 428.230 211.735 427.759 207.552 C 427.499 205.251, 426.479 202.134, 425.491 200.626 C 421.444 194.449, 410.629 191.880, 399.405 194.428 M 428 225.983 C 401.836 232.932, 370.514 258.980, 353.572 287.877 C 345.852 301.045, 340.655 318.504, 342.393 325.428 L 343.011 327.893 348.756 325.054 C 357.072 320.944, 366.933 318.145, 377.475 316.901 C 386.334 315.857, 390.965 316.120, 407.669 318.618 L 411.838 319.242 424.261 306.871 C 437.412 293.775, 443.480 285.520, 451.128 270.317 C 459.119 254.432, 461.345 237.957, 456.397 231.329 C 451.493 224.761, 440.439 222.680, 428 225.983 M 149.007 310.830 C 59.087 390.134, 57.453 391.641, 54.007 398.410 C 50.759 404.789, 50.500 405.971, 50.500 414.399 C 50.500 422.274, 50.877 424.308, 53.302 429.500 C 62.901 450.052, 88.026 457.343, 106.462 444.928 C 109.993 442.550, 269.238 262.831, 269.771 260.622 C 269.920 260.005, 263.395 252.893, 255.271 244.818 L 240.500 230.137 149.007 310.830 M 368 331.052 C 323.451 342.585, 298.989 391.221, 316.595 433.256 C 324.878 453.032, 342.747 469.546, 363.500 476.606 C 374.211 480.249, 392.448 481.124, 403.302 478.515 C 429.099 472.315, 449.926 453.190, 458.496 427.833 C 462.223 416.808, 463.146 398.708, 460.544 387.698 C 455.331 365.643, 440.268 346.725, 419.636 336.321 C 404.924 328.902, 384.394 326.807, 368 331.052 M 381.306 358.411 L 378.500 360.822 378.186 378.411 L 377.871 396 360.390 396 C 343.163 396, 342.873 396.036, 340.455 398.455 C 337.277 401.632, 337.260 406.027, 340.411 409.694 L 342.822 412.500 360.347 412.814 L 377.873 413.127 378.186 430.653 L 378.500 448.178 381.306 450.589 C 384.973 453.740, 389.368 453.723, 392.545 450.545 C 394.964 448.127, 395 447.837, 395 430.610 L 395 413.129 412.589 412.814 L 430.178 412.500 432.589 409.694 C 435.740 406.027, 435.723 401.632, 432.545 398.455 C 430.126 396.035, 429.841 396, 412.545 396 L 395 396 395 378.455 C 395 361.159, 394.965 360.874, 392.545 358.455 C 389.368 355.277, 384.973 355.260, 381.306 358.411" stroke="none" fill-rule="evenodd"/></svg>
