<svg xmlns="http://www.w3.org/2000/svg" width="512" height="512" viewBox="0 0 512 512" version="1.1"><path d="" stroke="none" fill="#080404" fill-rule="evenodd"/><path d="M 224.596 1.555 C 196.069 5.439, 172.870 12.321, 147.477 24.435 C 134.734 30.514, 116.875 41.060, 108.093 47.692 C 105.670 49.522, 103.547 50.880, 103.376 50.709 C 103.205 50.538, 103.574 48.741, 104.195 46.715 C 107.500 35.948, 96.657 25.130, 85.556 28.120 C 77.711 30.232, 76.558 32.476, 64.250 69.600 C 58.062 88.263, 53 105.146, 53 107.118 C 53 113.518, 59.341 120.532, 66.122 121.632 C 71.536 122.511, 138.566 100.137, 142.202 96.238 C 145.915 92.257, 147 89.670, 146.996 84.816 C 146.990 77.133, 142.086 71.597, 134.067 70.220 L 129.875 69.500 139.188 63.838 C 176.606 41.086, 213.419 30.718, 256.500 30.800 C 307.122 30.896, 352.272 46.226, 393.478 77.309 C 403.804 85.097, 426.903 108.196, 434.691 118.522 C 458.846 150.543, 473.392 184.916, 479.090 223.438 C 481.957 242.826, 481.957 269.174, 479.090 288.562 C 471.852 337.494, 450.459 379.789, 415.100 415.070 C 395.902 434.227, 380.670 445.401, 358.015 456.952 C 325.564 473.496, 293.240 481.169, 256 481.169 C 194.665 481.169, 140.340 458.606, 96.930 415.100 C 77.784 395.912, 66.497 380.532, 55.187 358.219 C 40.215 328.680, 33.121 302.169, 30.915 267.505 C 30.150 255.469, 29.464 250.767, 28.145 248.508 C 22.370 238.621, 7.950 238.474, 1.995 248.241 C 0.330 250.970, 0.007 253.288, 0.004 262.506 C -0.014 315.007, 21.417 373.252, 56.834 416.960 C 99.010 469.010, 160.518 502.936, 226.631 510.616 C 243.610 512.588, 279.051 512.032, 294.500 509.550 C 366.967 497.911, 429.561 457.522, 470.481 396 C 490.761 365.509, 506.190 323.795, 510.057 289 C 510.699 283.225, 511.695 277.496, 512.271 276.270 C 513.620 273.393, 512.561 243.136, 510.496 225.566 C 502.835 160.388, 468.535 98.497, 416.985 56.834 C 379.610 26.628, 333.271 6.990, 286.441 1.512 C 270.591 -0.342, 238.361 -0.320, 224.596 1.555 M 238 91.765 C 212.116 94.512, 186.035 104.074, 163.393 119.118 C 148.433 129.058, 129.058 148.433, 119.118 163.393 C 103.834 186.395, 95.780 208.438, 91.603 238.688 L 91.301 240.876 115.901 241.188 C 139.467 241.487, 140.631 241.593, 143.618 243.724 C 148.267 247.040, 150.380 250.877, 150.380 256 C 150.380 261.123, 148.267 264.960, 143.618 268.276 C 140.631 270.406, 139.467 270.513, 115.924 270.812 L 91.348 271.124 92.177 277.312 C 95.661 303.319, 104.422 326.488, 119.164 348.676 C 129.042 363.544, 148.467 382.965, 163.349 392.853 C 185.397 407.502, 208.824 416.359, 234.688 419.823 L 240.876 420.652 241.188 396.076 C 241.469 373.974, 241.689 371.221, 243.382 368.724 C 249.876 359.146, 262.124 359.146, 268.618 368.724 C 270.311 371.221, 270.531 373.974, 270.812 396.076 L 271.124 420.652 277.312 419.823 C 303.319 416.339, 326.488 407.578, 348.676 392.836 C 363.531 382.966, 382.966 363.531, 392.836 348.676 C 407.578 326.488, 416.339 303.319, 419.823 277.312 L 420.652 271.124 396.076 270.812 C 372.533 270.513, 371.369 270.406, 368.382 268.276 C 363.733 264.960, 361.620 261.123, 361.620 256 C 361.620 250.877, 363.733 247.040, 368.382 243.724 C 371.369 241.594, 372.533 241.487, 396.076 241.188 L 420.652 240.876 419.823 234.688 C 416.339 208.681, 407.578 185.512, 392.836 163.324 C 382.944 148.436, 363.535 129.036, 348.607 119.118 C 325.605 103.834, 303.562 95.780, 273.312 91.603 L 271.124 91.301 270.812 115.901 C 270.513 139.467, 270.407 140.631, 268.276 143.618 C 264.960 148.267, 261.123 150.380, 256 150.380 C 250.877 150.380, 247.040 148.267, 243.724 143.618 C 241.609 140.652, 241.476 139.304, 241 116 L 240.500 91.500 238 91.765 M 185.241 179.995 C 178.778 183.935, 176.119 192.531, 179.424 198.800 C 180.207 200.285, 196.294 216.858, 215.174 235.630 C 243.668 263.961, 250.052 269.836, 252.750 270.207 C 261.046 271.347, 260.371 271.877, 296.826 235.630 C 315.706 216.858, 331.793 200.285, 332.576 198.800 C 335.881 192.531, 333.222 183.935, 326.759 179.995 C 323.167 177.804, 317.074 177.390, 313.684 179.105 C 312.483 179.713, 299.012 192.648, 283.750 207.849 L 256 235.487 228.250 207.849 C 212.988 192.648, 199.517 179.713, 198.316 179.105 C 194.926 177.390, 188.833 177.804, 185.241 179.995 M 0.392 264 C 0.392 271.425, 0.549 274.462, 0.742 270.750 C 0.934 267.038, 0.934 260.962, 0.742 257.250 C 0.549 253.537, 0.392 256.575, 0.392 264" stroke="none" fill-rule="evenodd"/></svg>
