<svg xmlns="http://www.w3.org/2000/svg" width="512" height="512" viewBox="0 0 512 512" version="1.1"><path d="" stroke="none" fill="#080404" fill-rule="evenodd"/><path d="M 9.180 1.682 C 7.353 2.582, 4.653 4.899, 3.180 6.831 L 0.500 10.344 0.263 227.422 L 0.025 444.500 2.283 448.480 C 5.721 454.540, 10.842 456.964, 20.250 456.984 L 28 457 28.022 464.250 C 28.067 479.216, 35.135 485.978, 50.750 485.994 L 56 486 56 491.532 C 56 497.645, 57.933 503.228, 61.298 506.831 C 66.389 512.284, 59.312 512.001, 190.200 511.991 L 311.500 511.982 348.291 475.741 L 385.083 439.500 385.041 411.849 L 385 384.199 393.965 383.849 C 404.080 383.455, 405.713 382.542, 406.652 376.754 C 407.138 373.765, 406.797 372.706, 404.664 370.573 L 402.091 368 354.639 368 C 307.773 368, 307.194 367.975, 307.707 366.012 C 308.541 362.823, 315.885 355.108, 320.372 352.708 C 324.452 350.526, 325.093 350.497, 375.346 350.207 C 419.363 349.953, 426.922 350.126, 431.637 351.497 C 437.905 353.319, 444.177 358.466, 447.093 364.182 L 449.041 368 442.743 368 C 435.473 368, 432.469 369.586, 431.516 373.928 C 430.698 377.651, 433.128 382.534, 436.210 383.359 C 440.156 384.416, 458.787 384.054, 461.385 382.870 C 465.348 381.065, 466.550 376.840, 465.254 369.273 C 462.178 351.314, 447.995 337.582, 429.806 334.952 C 426.338 334.451, 418.212 334.031, 411.750 334.020 L 400 334 400 252 L 400 170 427.975 170 L 455.950 170 454.888 172.750 C 454.303 174.263, 446.405 195.925, 437.338 220.890 C 421.652 264.073, 420.884 266.528, 421.544 271.390 C 422.316 277.081, 425.368 285.909, 428.150 290.494 C 431.109 295.372, 439.720 303.530, 444.867 306.331 C 461.543 315.407, 482.464 313.146, 496.552 300.745 C 502.663 295.366, 508.446 286.442, 510.163 279.741 C 511.320 275.223, 511.568 285.950, 512.008 359.511 C 512.288 406.255, 512.515 346.850, 512.512 227.500 C 512.510 108.150, 512.373 67.425, 512.208 137 L 511.909 263.500 494.982 217 C 471.656 152.919, 473.373 157.054, 469.402 155.395 C 466.969 154.378, 461.213 154, 448.160 154 L 430.256 154 429.649 150.250 C 428.624 143.908, 422.563 132.722, 416.757 126.456 C 410.012 119.174, 400.939 113.663, 391.842 111.320 L 385 109.557 384.984 88.529 C 384.968 68.570, 384.852 67.297, 382.713 63.520 C 379.281 57.460, 374.161 55.036, 364.750 55.016 L 357 55 357 48.565 C 357 41.044, 355.884 37.582, 352.186 33.627 C 348.322 29.494, 344.033 28, 336.032 28 L 329 28 329 21.468 C 329 14.419, 327.217 8.933, 323.702 5.169 C 318.584 -0.314, 328.239 -0.002, 164.300 0.023 C 25.798 0.044, 12.209 0.189, 9.180 1.682 M 0.491 228.500 C 0.491 347.850, 0.608 396.527, 0.750 336.670 C 0.892 276.814, 0.892 179.164, 0.750 119.670 C 0.608 60.177, 0.491 109.150, 0.491 228.500 M 16.203 16.197 C 14.454 17.946, 14.450 439.050, 16.200 440.800 C 16.860 441.460, 19.785 442, 22.700 442 L 28 442 28 300.111 C 28 162.968, 28.063 158.144, 29.871 155.911 C 32.401 152.786, 38.189 152.744, 41.272 155.828 L 43.500 158.055 44 313.778 L 44.500 469.500 50.250 469.800 L 56 470.100 56.022 269.800 C 56.043 77.202, 56.115 69.346, 57.890 65.500 C 60.026 60.872, 63.312 57.583, 67.315 56.067 C 69.259 55.330, 112.063 55, 205.565 55 L 341 55 341 49.500 L 341 44 192.532 44 L 44.064 44 43.782 85.589 L 43.500 127.178 41.139 129.089 C 37.862 131.742, 32.873 131.558, 30.174 128.686 C 28.013 126.385, 28 126.120, 28 84.251 C 28 56.922, 28.374 41.142, 29.064 39.315 C 30.511 35.484, 34.826 31.042, 38.718 29.377 C 41.397 28.230, 64.615 28, 177.516 28 L 313.095 28 312.798 21.750 L 312.500 15.500 164.953 15.247 C 51.022 15.051, 17.132 15.268, 16.203 16.197 M 73.248 70.826 C 72.250 71.459, 72.047 114.769, 72.248 284.060 L 72.500 496.500 186.194 496.754 L 299.887 497.008 300.194 468.179 L 300.500 439.349 303.184 435.296 C 304.799 432.856, 307.613 430.398, 310.250 429.121 C 314.391 427.116, 316.148 427, 342.316 427 L 370 427 370 405.500 L 370 384 333.450 384 C 293.612 384, 291.730 383.755, 290.385 378.398 C 287.785 368.037, 296.268 349.942, 307.261 342.401 C 316.327 336.182, 321.728 334.826, 339.750 334.244 L 356 333.720 356 251.860 L 356 170 328.030 170 L 300.060 170 303.927 180.750 C 306.054 186.663, 313.885 208.235, 321.330 228.689 L 334.866 265.878 333.929 272.689 C 331.494 290.377, 317.696 305.980, 300.540 310.448 C 273.126 317.587, 244.826 297.130, 243.884 269.493 C 243.740 265.278, 246.627 256.489, 262.405 213.107 C 272.685 184.841, 281.736 160.477, 282.518 158.965 C 284.695 154.755, 288.555 154, 307.913 154 L 325.527 154 326.697 149.072 C 330.913 131.324, 346.751 115.580, 365.127 110.871 L 370 109.622 370 91.011 C 370 77.869, 369.647 72.047, 368.800 71.200 C 367.877 70.277, 333.717 70.004, 221.050 70.015 C 140.448 70.024, 73.936 70.388, 73.248 70.826 M 369.500 125.934 C 359.155 128.450, 349.708 135.893, 345.064 145.189 C 343.379 148.561, 342 151.923, 342 152.660 C 342 153.755, 348.573 154, 378 154 C 406.145 154, 413.995 153.727, 413.978 152.750 C 413.938 150.472, 410.053 142.855, 406.902 138.876 C 398.618 128.417, 382.386 122.801, 369.500 125.934 M 116.455 136.455 C 114.907 138.002, 114 140.052, 114 142 C 114 143.948, 114.907 145.998, 116.455 147.545 L 118.909 150 184.820 150 C 249.985 150, 250.760 149.977, 253.365 147.927 C 257.087 145, 257.087 139, 253.365 136.073 C 250.760 134.023, 249.985 134, 184.820 134 L 118.909 134 116.455 136.455 M 372 252 L 372 334 378 334 L 384 334 384 252 L 384 170 378 170 L 372 170 372 252 M 275.750 222.274 C 268.738 241.657, 263 257.850, 263 258.258 C 263 258.666, 274.700 259, 289 259 C 303.300 259, 315 258.666, 315 258.258 C 315 256.877, 289.504 187.032, 289 187.032 C 288.725 187.032, 282.762 202.891, 275.750 222.274 M 453.352 223.017 L 440.270 259 466.635 259 C 481.136 259, 493 258.782, 493 258.515 C 493 257.464, 467.748 188.454, 467.112 187.767 C 466.739 187.364, 460.547 203.226, 453.352 223.017 M 118.315 192.994 C 113.621 194.914, 112.481 202.224, 116.314 205.826 L 118.629 208 173.742 208 L 228.855 208 230.927 205.365 C 233.516 202.074, 233.580 197.938, 231.089 194.861 L 229.178 192.500 174.839 192.300 C 144.707 192.190, 119.527 192.499, 118.315 192.994 M 116 253 C 114.762 254.238, 114 256.333, 114 258.500 C 114 260.667, 114.762 262.762, 116 264 C 117.943 265.943, 119.333 266, 165 266 C 210.667 266, 212.057 265.943, 214 264 C 215.238 262.762, 216 260.667, 216 258.500 C 216 256.333, 215.238 254.238, 214 253 C 212.057 251.057, 210.667 251, 165 251 C 119.333 251, 117.943 251.057, 116 253 M 261.518 277.696 C 266.083 288.623, 277.054 295.979, 288.807 295.994 C 301.054 296.010, 311.848 288.892, 316.471 277.750 L 318.027 274 289 274 L 259.973 274 261.518 277.696 M 438 274.533 C 438 276.854, 443.765 285.504, 447.508 288.798 C 454.906 295.310, 465.466 297.665, 475.177 294.967 C 483.276 292.718, 492.905 283.668, 494.559 276.750 L 495.217 274 466.608 274 C 450.874 274, 438 274.240, 438 274.533 M 116.174 311.314 C 113.471 314.192, 113.355 318.982, 115.912 322.139 L 117.823 324.500 165.498 324.500 L 213.173 324.500 215.679 321.587 C 218.470 318.342, 218.335 314.132, 215.333 310.816 C 213.789 309.110, 210.806 309, 166.019 309 L 118.349 309 116.174 311.314 M 116.336 369.573 C 114.192 371.718, 113.860 372.760, 114.351 375.823 C 115.567 383.424, 111.440 383, 184.156 383 L 249.091 383 251.545 380.545 C 254.793 377.298, 254.857 372.153, 251.686 369.174 L 249.371 367 184.140 367 L 118.909 367 116.336 369.573 M 116.455 427.455 C 114.907 429.002, 114 431.052, 114 433 C 114 434.948, 114.907 436.998, 116.455 438.545 L 118.909 441 183.020 441 C 222.150 441, 247.832 440.625, 248.929 440.038 C 249.917 439.509, 251.292 437.709, 251.984 436.038 C 253.581 432.184, 251.976 427.766, 248.385 426.130 C 246.626 425.328, 227.471 425, 182.407 425 L 118.909 425 116.455 427.455 M 316.447 444.278 C 316.177 444.981, 316.079 454.436, 316.228 465.289 L 316.500 485.021 337.491 464.010 L 358.482 443 337.710 443 C 321.770 443, 316.823 443.297, 316.447 444.278" stroke="none" fill="#040404" fill-rule="evenodd"/></svg>