<svg xmlns="http://www.w3.org/2000/svg" width="25" height="25" viewBox="0 0 512 512" version="1.1"><path d="M 175.961 1.462 C 153.412 4.745, 132.816 11.209, 112.845 21.272 C 96.852 29.330, 94.712 31.476, 97.047 37.113 C 99.813 43.791, 103.377 43.533, 119.354 35.500 C 178.703 5.662, 250.672 9.672, 305.914 45.893 C 307.080 46.658, 306.702 48.102, 303.747 54.160 C 298.041 65.856, 294.056 79.819, 294.017 88.250 L 294 92.001 284.750 85.618 C 268.438 74.364, 251.613 67.128, 231.688 62.799 C 217.219 59.656, 188.986 59.640, 174.817 62.768 C 155.455 67.042, 140.102 73.450, 124.492 83.772 C 63.794 123.907, 42.778 202.296, 75.235 267.500 C 81.351 279.787, 89.611 291.491, 99.418 301.763 C 109.516 312.340, 123.029 323, 126.339 323 C 131.425 323, 135.774 317.165, 134.055 312.646 C 133.563 311.351, 129.361 307.324, 124.717 303.698 C 77.768 267.038, 62.470 201.527, 88.420 148.265 C 95.156 134.438, 102.194 124.619, 113.407 113.407 C 128.300 98.513, 144.757 88.288, 163.902 82.032 C 193.454 72.375, 229.239 74.459, 256.627 87.433 C 273.129 95.250, 295 111.548, 295 116.028 C 295 119.352, 300.140 134.308, 303.754 141.500 C 308.429 150.803, 313.442 158.002, 321.232 166.597 C 327.406 173.408, 327.722 174.012, 329.082 181.597 C 330.918 191.831, 330.936 217.300, 329.113 226.500 C 326.913 237.606, 322.420 250.352, 316.955 260.992 C 301.953 290.199, 274.394 314.094, 244 324.248 C 228.638 329.381, 221.565 330.485, 204 330.493 C 185.559 330.501, 178.702 329.470, 163.304 324.374 C 157.696 322.518, 152.388 321, 151.508 321 C 148.599 321, 145 325.634, 145 329.382 C 145 334.077, 147.711 336.031, 159.531 339.857 C 175.676 345.084, 184.630 346.425, 203.500 346.444 C 222.517 346.463, 230.481 345.210, 247.639 339.503 C 309.115 319.053, 350.016 260.060, 346.584 196.794 L 345.949 185.087 351.586 187.580 C 360.694 191.609, 373.623 194.959, 382.771 195.662 L 391.291 196.317 390.695 210.909 C 389.996 228.002, 388.065 240.039, 383.421 256.231 C 364.477 322.292, 307.685 374.627, 240.379 388.047 C 226.571 390.800, 197.624 391.818, 183.313 390.052 C 123.132 382.630, 70.512 348.544, 40.501 297.544 C 10.121 245.916, 7.381 178.363, 33.442 123.500 C 43.658 101.992, 54.718 86.591, 72.927 68.516 C 83.446 58.073, 85 56.111, 85 53.266 C 85 48.937, 81.991 46, 77.557 46 C 73.549 46, 65.435 52.370, 55.020 63.694 C 30.902 89.915, 14.423 120.150, 5.879 153.855 C -2.916 188.552, -1.900 229.312, 8.621 263.803 C 25.043 317.642, 65.235 363.152, 118.337 388.037 C 136.114 396.367, 160.915 403.349, 181.974 405.953 C 192.858 407.298, 216.142 407.298, 227.026 405.953 C 258.509 402.061, 288.383 391.115, 314.369 373.950 L 325.237 366.770 336.122 377.622 L 347.007 388.473 346.381 395.987 C 345.472 406.897, 347.695 413.823, 356.314 426.932 C 379.341 461.958, 403.403 490.490, 418.500 500.672 C 431.033 509.124, 438.872 511.973, 449.645 511.989 C 464.104 512.011, 476.176 505.901, 491.039 491.039 C 505.916 476.161, 512.026 464.080, 511.974 449.645 C 511.882 424.228, 489.706 399.153, 433.166 360.535 C 414.599 347.852, 411.418 346.581, 398.295 346.605 L 388.090 346.623 377.425 335.925 L 366.761 325.227 372.925 315.870 C 394.089 283.744, 404.955 249.624, 406.668 209.909 L 407.298 195.317 416.899 192.621 C 450.949 183.058, 476.354 157.967, 486.034 124.342 C 501.572 70.362, 466.721 13.298, 411.202 1.814 C 398.668 -0.779, 378.583 -0.307, 366.716 2.859 C 351.093 7.027, 335.502 15.845, 323.143 27.504 L 316.435 33.832 308.967 29.256 C 286.133 15.262, 257.108 5.009, 230.424 1.511 C 216.658 -0.294, 188.197 -0.319, 175.961 1.462 M 383.227 16.186 C 354.987 18.527, 329.926 36.169, 317.371 62.546 C 311.304 75.294, 309.624 82.962, 309.607 98 C 309.578 122.082, 317.699 140.967, 335.251 157.636 C 344.563 166.478, 353.679 171.950, 366 176.091 C 373.951 178.763, 377.467 179.363, 387.566 179.770 C 413.692 180.822, 433.701 172.650, 451.792 153.539 C 486.514 116.857, 479.398 58.236, 436.687 29.101 C 421.913 19.022, 403.287 14.523, 383.227 16.186 M 377.340 38.435 C 367.552 41.496, 362.030 48.851, 361.241 59.876 L 360.760 66.603 352.799 67.669 C 342.792 69.009, 337.796 72.219, 333.793 79.881 C 331.160 84.922, 331.001 85.953, 331.022 97.864 C 331.046 111.839, 332.219 116.031, 337.594 121.351 C 342.367 126.075, 347.212 128, 354.329 128 L 360.737 128 361.207 135.250 C 361.886 145.715, 365.600 151.612, 374.487 156.333 C 377.983 158.191, 380.173 158.468, 391.500 158.483 C 403.977 158.499, 404.710 158.384, 409.708 155.614 C 418.045 150.994, 422 143.801, 422 133.257 L 422 128 428.540 128 C 438.711 128, 445.995 123.442, 450.114 114.500 C 451.590 111.294, 451.960 107.993, 451.978 97.864 C 451.999 85.953, 451.840 84.922, 449.207 79.881 C 445.204 72.219, 440.208 69.009, 430.201 67.669 L 422.240 66.603 421.759 59.876 C 420.956 48.651, 415.420 41.436, 405.269 38.380 C 399.529 36.653, 382.934 36.685, 377.340 38.435 M 379.635 55.073 C 377.209 56.981, 377 57.737, 377 64.605 C 377 78.609, 372.923 82.990, 359.885 82.996 C 353.699 82.999, 351.775 83.389, 349.635 85.073 C 347.080 87.082, 347 87.471, 347 97.918 C 347 111.813, 347.365 112.222, 360.467 112.968 C 367.883 113.391, 370.254 113.910, 372.035 115.500 C 375.539 118.628, 377 123.304, 377 131.395 C 377 138.263, 377.209 139.019, 379.635 140.927 C 381.868 142.684, 383.676 143, 391.500 143 C 399.324 143, 401.132 142.684, 403.365 140.927 C 405.791 139.019, 406 138.263, 406 131.395 C 406 123.347, 407.461 118.625, 410.901 115.560 C 412.589 114.055, 415.190 113.481, 422.500 113 C 435.677 112.133, 436 111.772, 436 97.918 C 436 87.471, 435.920 87.082, 433.365 85.073 C 431.225 83.389, 429.301 82.999, 423.115 82.996 C 410.077 82.990, 406 78.609, 406 64.605 C 406 57.737, 405.791 56.981, 403.365 55.073 C 401.132 53.316, 399.324 53, 391.500 53 C 383.676 53, 381.868 53.316, 379.635 55.073 M 132.500 165.945 C 131.400 166.396, 129.773 167.605, 128.885 168.632 C 127.093 170.705, 105 231.119, 105 233.947 C 105 237.272, 108.885 241, 112.350 241 C 117.094 241, 119.709 238.600, 121.640 232.473 L 123.365 227 135.500 227 L 147.635 227 149.360 232.473 C 151.291 238.600, 153.906 241, 158.650 241 C 162.132 241, 166 237.267, 166 233.907 C 166 232.905, 161.764 220.253, 156.587 205.792 C 142.130 165.409, 143.262 168.008, 139.424 166.404 C 135.645 164.825, 135.295 164.801, 132.500 165.945 M 185.020 166.218 C 180.261 168.753, 180.030 170.432, 180.015 202.601 C 180 233.635, 180.482 238.117, 184.039 240.021 C 186.997 241.604, 211.877 241.229, 217.568 239.516 C 225.824 237.031, 231.917 231.583, 236.500 222.589 C 240.488 214.762, 240.500 214.704, 240.500 203.097 C 240.500 191.961, 240.357 191.166, 237.219 184.793 C 233.321 176.876, 226.135 169.955, 219.244 167.481 C 212.865 165.190, 188.627 164.296, 185.020 166.218 M 250.923 167.923 C 249.315 169.531, 248.006 171.668, 248.014 172.673 C 248.039 175.995, 270.670 236.309, 272.780 238.678 C 275.346 241.559, 281.724 241.859, 284.926 239.250 C 286.414 238.038, 290.441 227.881, 298.037 206.185 C 304.066 188.962, 309 173.852, 309 172.609 C 309 167.019, 299.994 163.540, 295.991 167.583 C 294.948 168.637, 290.884 178.725, 286.961 190 C 283.037 201.275, 279.522 210.821, 279.149 211.214 C 278.777 211.607, 275.118 202.607, 271.019 191.214 C 263.320 169.815, 260.561 165, 256 165 C 254.815 165, 252.531 166.315, 250.923 167.923 M 196 203.180 L 196 225.565 203.250 225.240 C 212.983 224.802, 214.316 224.446, 218.075 221.283 C 228.453 212.551, 227.673 191.446, 216.703 184.184 C 213.290 181.924, 211.333 181.444, 204.324 181.147 L 196 180.795 196 203.180 M 132.744 201.833 C 131.235 206.093, 130 209.899, 130 210.290 C 130 210.680, 132.644 211, 135.876 211 L 141.752 211 139.460 204.750 C 138.199 201.313, 136.790 197.507, 136.328 196.293 C 135.614 194.419, 135.074 195.255, 132.744 201.833 M 347.229 347.270 L 337.998 356.540 346.769 365.270 L 355.540 374 364.771 364.730 L 374.002 355.460 365.231 346.730 L 356.460 338 347.229 347.270 M 390 364.068 C 383.772 366.870, 367.464 383.072, 364.401 389.500 C 361.772 395.021, 361.305 401.678, 363.168 407.101 C 365.080 412.669, 383.942 440.159, 397.404 457 C 405.361 466.954, 419.176 481.189, 426 486.464 C 443.600 500.071, 456.368 499.805, 474.004 485.464 C 487.769 474.271, 495.973 461.135, 495.990 450.261 C 496.009 438.145, 489.871 427.861, 472.856 411.500 C 457.319 396.560, 415.943 366.135, 407.101 363.148 C 401.999 361.425, 395.044 361.799, 390 364.068" stroke="none"  fill-rule="evenodd"/></svg>