<svg width="15" height="8" viewBox="0 0 15 8" fill="none" xmlns="http://www.w3.org/2000/svg">
<path d="M9.05991e-05 5.96322C-0.000417709 5.81383 0.0325546 5.66622 0.0965834 5.53124C0.160612 5.39626 0.254071 5.27734 0.370091 5.18322L6.37009 0.35322C6.54902 0.206139 6.77347 0.125732 7.00509 0.125732C7.23672 0.125732 7.46116 0.206139 7.64009 0.35322L13.6401 5.35322C13.8443 5.52296 13.9727 5.76687 13.9971 6.0313C14.0215 6.29572 13.9398 6.559 13.7701 6.76322C13.6004 6.96744 13.3564 7.09586 13.092 7.12024C12.8276 7.14462 12.5643 7.06296 12.3601 6.89322L7.00009 2.42322L1.64009 6.74322C1.49331 6.8655 1.31456 6.94318 1.12502 6.96706C0.935468 6.99094 0.743043 6.96002 0.570516 6.87797C0.397988 6.79591 0.252577 6.66615 0.151486 6.50404C0.050396 6.34193 -0.002141 6.15425 9.05991e-05 5.96322Z" fill="white"/>
</svg>
