<?xml version="1.0" standalone="no"?>
<!DOCTYPE svg PUBLIC "-//W3C//DTD SVG 20010904//EN"
 "http://www.w3.org/TR/2001/REC-SVG-20010904/DTD/svg10.dtd">
<svg version="1.0" xmlns="http://www.w3.org/2000/svg" viewBox="0 0 512.000000 512.000000"
 preserveAspectRatio="xMidYMid meet">

<g transform="translate(0.000000,512.000000) scale(0.100000,-0.100000)"
fill="#000000" stroke="none">
<path d="M1893 5105 c-141 -39 -219 -107 -318 -275 -124 -210 -138 -240 -130
-285 8 -51 26 -78 75 -114 l39 -28 -221 -384 c-122 -211 -222 -385 -223 -387
-1 -1 -22 7 -46 18 -85 38 -162 15 -211 -63 -63 -102 -162 -282 -179 -326 -41
-110 -30 -255 28 -363 56 -104 101 -137 544 -392 510 -295 559 -321 634 -336
156 -32 340 37 433 162 63 84 202 332 209 371 8 51 -28 120 -77 150 l-39 23
72 127 c40 70 75 127 80 127 4 0 223 -125 487 -277 l480 -277 0 -77 c0 -86 23
-173 63 -242 50 -84 121 -135 493 -348 435 -250 426 -246 513 -261 184 -31
377 65 465 231 94 180 64 385 -78 526 -51 50 -123 96 -421 266 -198 114 -378
216 -400 227 -133 65 -323 50 -442 -37 l-39 -28 -474 274 c-261 151 -481 278
-487 282 -9 5 8 42 59 131 39 69 73 127 75 129 2 3 23 -5 47 -17 71 -36 138
-23 187 35 34 41 184 307 203 360 55 157 10 343 -112 461 -47 46 -151 110
-523 324 -255 147 -484 275 -509 283 -64 24 -193 28 -257 10z m601 -545 c241
-140 452 -265 469 -279 32 -27 57 -77 57 -115 0 -23 -55 -140 -85 -180 -13
-17 -18 -16 -107 35 -180 103 -1023 591 -1027 594 -4 5 65 122 88 149 9 10 30
27 46 38 64 41 82 33 559 -242z m-279 -532 l385 -222 -33 -57 c-181 -319 -413
-718 -418 -719 -3 0 -159 88 -345 196 -186 108 -360 208 -386 223 l-47 27 222
387 c122 212 225 386 230 387 4 0 180 -100 392 -222z m-608 -1034 c301 -174
552 -320 557 -324 11 -11 -69 -144 -106 -175 -38 -33 -90 -41 -136 -23 -59 23
-894 507 -925 536 -31 30 -52 92 -42 131 8 32 86 171 96 171 4 0 254 -142 556
-316z m2624 -477 c605 -348 576 -328 586 -406 8 -62 -24 -123 -81 -151 -34
-16 -57 -21 -83 -17 -32 6 -195 96 -638 353 -159 92 -185 119 -185 194 0 57
29 104 80 131 67 36 90 29 321 -104z"/>
<path d="M545 1486 c-84 -21 -147 -57 -211 -121 -98 -97 -134 -197 -134 -370
l0 -95 -40 0 c-59 0 -116 -33 -140 -80 -19 -37 -20 -58 -20 -370 0 -312 1
-333 20 -370 13 -26 34 -47 60 -60 38 -20 57 -20 970 -20 913 0 932 0 970 20
26 13 47 34 60 60 19 37 20 58 20 370 0 312 -1 333 -20 370 -24 47 -81 80
-140 80 l-40 0 0 95 c0 172 -36 272 -135 371 -65 65 -136 105 -223 123 -77 16
-930 14 -997 -3z m975 -306 c60 -31 80 -78 80 -190 l0 -90 -550 0 -550 0 0 93
c1 109 17 147 76 183 l39 24 433 0 c414 0 435 -1 472 -20z m280 -730 l0 -150
-750 0 -750 0 0 150 0 150 750 0 750 0 0 -150z"/>
</g>
</svg>
