<?xml version="1.0" standalone="no"?>
<!DOCTYPE svg PUBLIC "-//W3C//DTD SVG 20010904//EN"
 "http://www.w3.org/TR/2001/REC-SVG-20010904/DTD/svg10.dtd">
<svg version="1.0" xmlns="http://www.w3.org/2000/svg"
 width="512.000000pt" height="512.000000pt" viewBox="0 0 512.000000 512.000000"
 preserveAspectRatio="xMidYMid meet">

<g transform="translate(0.000000,512.000000) scale(0.100000,-0.100000)"
fill="#000000" stroke="none">
<path d="M502 5105 c-188 -41 -361 -183 -444 -364 -58 -125 -58 -126 -58 -973
l0 -778 425 0 424 0 3 -802 3 -803 24 -70 c37 -113 81 -185 161 -266 82 -83
163 -133 275 -170 l70 -24 803 -3 802 -3 0 -424 0 -425 1065 0 1065 0 0 778
c0 872 1 855 -71 1002 -57 114 -170 229 -279 282 -138 68 -148 69 -743 66
-519 -3 -534 -4 -597 -25 -188 -64 -350 -226 -412 -413 -18 -54 -22 -95 -26
-237 l-4 -173 -760 0 c-573 0 -771 3 -802 12 -53 16 -118 81 -134 134 -9 31
-12 229 -12 803 l0 761 425 0 426 0 -3 813 -3 812 -27 73 c-76 209 -262 373
-473 417 -98 21 -1028 20 -1123 0z m1110 -450 c23 -17 54 -51 68 -75 l25 -45
0 -560 0 -560 -637 -3 -638 -2 0 560 c0 615 -2 597 61 659 62 62 47 61 586 58
l491 -2 44 -30z m2968 -2975 c24 -14 58 -45 75 -68 l30 -44 3 -569 2 -569
-640 0 -640 0 0 536 c0 377 3 549 12 582 15 59 87 134 144 150 25 7 203 10
504 9 l465 -2 45 -25z"/>
</g>
</svg>
