<?xml version="1.0" standalone="no"?>
<!DOCTYPE svg PUBLIC "-//W3C//DTD SVG 20010904//EN"
 "http://www.w3.org/TR/2001/REC-SVG-20010904/DTD/svg10.dtd">
<svg version="1.0" xmlns="http://www.w3.org/2000/svg"
 width="512.000000pt" height="512.000000pt" viewBox="0 0 512.000000 512.000000"
 preserveAspectRatio="xMidYMid meet">

<g transform="translate(0.000000,512.000000) scale(0.100000,-0.100000)"
fill="#000000" stroke="none">
<path d="M1109 4837 c-38 -29 -39 -40 -39 -651 l0 -596 -72 -36 c-113 -57
-240 -148 -348 -251 -704 -669 -639 -1799 137 -2382 57 -43 143 -99 193 -125
l90 -47 0 -205 c0 -208 4 -234 39 -261 12 -10 437 -12 1909 -13 l1893 0 24 25
25 24 0 1728 0 1728 -538 537 -537 538 -1380 0 c-1069 -1 -1384 -3 -1396 -13z
m2661 -627 c0 -330 3 -487 11 -503 6 -14 22 -30 36 -36 16 -8 173 -11 503 -11
l480 0 0 -1615 0 -1615 -1785 0 -1785 0 0 125 c0 69 3 125 8 125 4 0 41 -9 82
-21 182 -48 440 -64 624 -38 308 42 616 188 834 394 64 60 75 76 75 104 0 30
-45 78 -521 554 l-522 522 0 728 c0 794 1 786 -56 807 -52 20 -334 -17 -501
-66 l-23 -6 0 516 0 516 1270 0 1270 0 0 -480z m-2120 -1358 l0 -717 505 -505
c421 -420 502 -506 492 -519 -24 -29 -170 -132 -250 -175 -208 -114 -422 -167
-673 -167 -163 0 -291 20 -434 67 -485 161 -833 552 -942 1057 -32 151 -32
411 0 556 91 408 329 736 680 940 168 98 419 176 575 180 l47 1 0 -718z"/>
<path d="M2010 3983 c-20 -8 -32 -23 -40 -50 -8 -27 -10 -257 -8 -786 l3 -749
28 -24 c59 -50 36 -69 629 523 643 643 597 576 471 693 -194 179 -452 312
-719 370 -126 27 -325 40 -364 23z m268 -168 c227 -37 457 -139 636 -283 l68
-55 -423 -423 c-233 -233 -427 -424 -431 -424 -5 0 -8 270 -8 600 l0 600 33 0
c17 0 74 -7 125 -15z"/>
<path d="M2688 2752 c-513 -513 -548 -549 -548 -582 0 -32 34 -69 543 -578
298 -298 552 -545 565 -549 35 -8 68 11 125 74 265 289 407 657 407 1053 0
404 -152 789 -424 1073 -94 98 -38 139 -668 -491z"/>
</g>
</svg>
