<svg width="9" height="17" viewBox="0 0 9 17" fill="none" xmlns="http://www.w3.org/2000/svg">
<path id="Vector" d="M1.83385 0.546954C2.00457 0.546373 2.17326 0.584052 2.3275 0.657221C2.48175 0.73039 2.61764 0.83719 2.7252 0.969772L8.24468 7.82627C8.41275 8.03074 8.50464 8.28722 8.50464 8.55191C8.50464 8.8166 8.41275 9.07308 8.24468 9.27756L2.53093 16.1341C2.33696 16.3674 2.05823 16.5142 1.75606 16.542C1.45389 16.5699 1.15302 16.4766 0.919654 16.2826C0.686285 16.0886 0.539529 15.8099 0.511669 15.5077C0.483809 15.2056 0.577128 14.9047 0.771096 14.6713L5.87919 8.5462L0.94251 2.42106C0.802771 2.25332 0.714005 2.04907 0.686717 1.83246C0.659429 1.61586 0.694759 1.39596 0.788528 1.19881C0.882297 1.00165 1.03058 0.835482 1.21583 0.719961C1.40108 0.604441 1.61555 0.544403 1.83385 0.546954Z" fill="#1E1838"/>
</svg>
