<svg width="20" height="20" viewBox="0 0 20 20" fill="none" xmlns="http://www.w3.org/2000/svg">
<path d="M14.0291 13.0473L13.737 13.3981L14.0598 13.7209L19.2929 18.954L18.954 19.2929L13.7209 14.0598L13.3981 13.737L13.0473 14.0291C11.5345 15.2893 9.59402 15.9177 7.62967 15.7836C5.66531 15.6495 3.82827 14.7633 2.5007 13.3092C1.17313 11.8552 0.45725 9.94531 0.501976 7.97689C0.546703 6.00848 1.34859 4.13308 2.74084 2.74084C4.13308 1.34859 6.00848 0.546703 7.97689 0.501976C9.94531 0.45725 11.8552 1.17313 13.3092 2.5007C14.7633 3.82827 15.6495 5.66531 15.7836 7.62967C15.9177 9.59402 15.2893 11.5345 14.0291 13.0473ZM1.00598 8.16382L1.00598 8.16438C1.00808 10.062 1.76283 11.8812 3.10462 13.223C4.44642 14.5648 6.26568 15.3196 8.16327 15.3217H8.16382C9.57951 15.3217 10.9634 14.9019 12.1405 14.1154C13.3176 13.3288 14.2351 12.2109 14.7768 10.903C15.3186 9.59509 15.4603 8.15588 15.1841 6.7674C14.908 5.37891 14.2262 4.1035 13.2252 3.10246C12.2241 2.10142 10.9487 1.4197 9.56025 1.14351C8.17176 0.867325 6.73256 1.00907 5.42463 1.55083C4.11671 2.0926 2.99881 3.01003 2.21229 4.18714C1.42578 5.36424 1.00598 6.74814 1.00598 8.16382Z" fill="#1E1838" stroke="#1E1838"/>
</svg>
