<svg xmlns="http://www.w3.org/2000/svg" width="512" height="512" viewBox="0 0 512 512" version="1.1"><path d="" stroke="none" fill="#080404" fill-rule="evenodd"/><path d="M 225 1.514 C 195.571 5.150, 170.562 12.726, 142.500 26.508 C 73.365 60.460, 22.488 125.334, 5.603 201.066 C -1.911 234.770, -1.911 277.230, 5.603 310.934 C 28.278 412.635, 110.034 490.582, 213 508.669 C 230.498 511.743, 263.991 512.947, 281 511.113 C 353.789 503.265, 417.299 467.404, 460.957 409.500 C 485.262 377.264, 501.788 338.963, 508.561 299.171 C 509.902 291.289, 511 283.103, 511 280.980 C 511 278.856, 511.450 276.840, 512 276.500 C 512.615 276.120, 513 267.803, 513 254.882 C 513 243.332, 512.615 234.120, 512.144 234.411 C 511.673 234.702, 511.009 231.691, 510.668 227.720 C 508.366 200.949, 499.531 171.060, 485.478 142.500 C 447.498 65.312, 371.472 11.459, 286.441 1.512 C 270.824 -0.314, 239.793 -0.314, 225 1.514 M 241 31.050 C 196.459 34.018, 155.307 49.561, 118.522 77.309 C 108.196 85.097, 85.097 108.196, 77.309 118.522 C 58.729 143.153, 46.358 168.095, 38.415 196.938 C 26.063 241.795, 28.726 294.163, 45.540 337.046 C 57.422 367.352, 73.205 391.323, 96.930 415.100 C 140.340 458.606, 194.665 481.169, 256 481.169 C 306.922 481.169, 352.120 465.889, 393.478 434.691 C 404.893 426.081, 427.384 403.276, 436.222 391.350 C 466.399 350.634, 481.169 306.154, 481.169 256 C 481.169 205.018, 465.926 159.929, 434.691 118.522 C 426.903 108.196, 403.804 85.097, 393.478 77.309 C 375.459 63.716, 353.974 51.756, 334.643 44.558 C 306.325 34.013, 271.636 29.009, 241 31.050 M 248.241 62.995 C 241.566 67.065, 241.007 69.225, 241.007 91 C 241.007 108.698, 241.191 110.801, 242.995 113.759 C 248.884 123.418, 263.116 123.418, 269.005 113.759 C 270.809 110.801, 270.993 108.698, 270.993 91 C 270.993 73.302, 270.809 71.199, 269.005 68.241 C 264.764 61.285, 255.065 58.834, 248.241 62.995 M 123.500 114.470 C 110.296 119.249, 110.175 137.972, 123.315 142.936 C 133.884 146.930, 144.979 138.378, 143.720 127.210 C 142.578 117.074, 132.992 111.035, 123.500 114.470 M 379.500 113.718 C 376.045 114.557, 370.845 119.128, 369.394 122.600 C 364.013 135.479, 376.521 147.987, 389.400 142.606 C 394.620 140.425, 398.385 134.755, 398.385 129.075 C 398.385 122.714, 395.570 118.066, 390.015 115.250 C 385.672 113.048, 383.536 112.737, 379.500 113.718 M 248.241 152.995 C 246.448 154.088, 244.088 156.448, 242.995 158.241 C 241.083 161.376, 241.007 163.370, 241.004 210.800 C 241.001 251.714, 241.244 260.559, 242.435 262.800 C 244.168 266.060, 336.578 358.325, 339.684 359.896 C 343.156 361.651, 350.146 361.209, 353.759 359.005 C 360.293 355.022, 363.023 345.708, 359.565 339.200 C 358.776 337.715, 338.526 316.927, 314.565 293.004 L 271 249.509 270.996 205.504 C 270.993 163.359, 270.909 161.362, 269.005 158.241 C 264.764 151.285, 255.065 148.834, 248.241 152.995 M 0.425 256 C 0.425 267.825, 0.569 272.663, 0.746 266.750 C 0.923 260.837, 0.923 251.162, 0.746 245.250 C 0.569 239.338, 0.425 244.175, 0.425 256 M 68.241 242.995 C 58.582 248.884, 58.582 263.116, 68.241 269.005 C 71.199 270.809, 73.302 270.993, 91 270.993 C 108.698 270.993, 110.801 270.809, 113.759 269.005 C 123.418 263.116, 123.418 248.884, 113.759 242.995 C 110.801 241.191, 108.698 241.007, 91 241.007 C 73.302 241.007, 71.199 241.191, 68.241 242.995 M 398.241 242.995 C 388.582 248.884, 388.582 263.116, 398.241 269.005 C 401.199 270.809, 403.302 270.993, 421 270.993 C 442.775 270.993, 444.935 270.434, 449.005 263.759 C 453.166 256.935, 450.715 247.236, 443.759 242.995 C 440.801 241.191, 438.698 241.007, 421 241.007 C 403.302 241.007, 401.199 241.191, 398.241 242.995 M 122.450 369.407 C 118.131 371.288, 114.304 376.243, 113.501 380.993 C 112.589 386.391, 116.082 393.654, 120.922 396.426 C 126.135 399.411, 132.926 399.056, 137.510 395.560 C 152.009 384.501, 139.134 362.140, 122.450 369.407 M 375.761 370.062 C 366.211 375.105, 365.532 388.727, 374.490 395.560 C 381.389 400.823, 391.969 398.642, 396.407 391.043 C 404.170 377.750, 389.478 362.820, 375.761 370.062 M 248.241 392.995 C 241.566 397.065, 241.007 399.225, 241.007 421 C 241.007 438.698, 241.191 440.801, 242.995 443.759 C 247.236 450.715, 256.935 453.166, 263.759 449.005 C 270.434 444.935, 270.993 442.775, 270.993 421 C 270.993 403.302, 270.809 401.199, 269.005 398.241 C 266.227 393.683, 261.416 391.007, 256 391.007 C 253.270 391.007, 250.218 391.789, 248.241 392.995" stroke="none" fill="#040404" fill-rule="evenodd"/></svg>