<svg width="48" height="43" viewBox="0 0 48 43" fill="none" xmlns="http://www.w3.org/2000/svg">
<path d="M23.9948 21.7061V41.689M23.9948 21.7061L18.444 26.1467M23.9948 21.7061L29.5456 26.1467M8.52797 15.3049C6.42801 15.8333 4.59327 17.1104 3.36849 18.8961C2.1437 20.6819 1.61316 22.8534 1.87654 25.0028C2.13993 27.1521 3.17911 29.1313 4.79885 30.5685C6.41859 32.0057 8.50739 32.802 10.6728 32.8077H12.8931" stroke="#24634B" stroke-width="2" stroke-linecap="round" stroke-linejoin="round"/>
<path d="M32.4992 10.9109C31.7403 7.90582 29.8672 5.30175 27.2595 3.62655C24.6518 1.95134 21.5047 1.33036 18.4562 1.88946C15.4076 2.44857 12.6857 4.14594 10.8423 6.63749C8.99877 9.12905 8.17164 12.2283 8.52853 15.3071C8.52853 15.3071 8.86824 17.2655 9.56321 18.3756" stroke="#24634B" stroke-width="2" stroke-linecap="round" stroke-linejoin="round"/>
<path d="M35.0957 32.8078C36.6634 32.8068 38.213 32.4737 39.6427 31.8306C41.0723 31.1875 42.3495 30.2489 43.3903 29.0765C44.431 27.9042 45.2117 26.5248 45.6809 25.029C46.1501 23.5332 46.2972 21.955 46.1125 20.3983C45.9278 18.8416 45.4156 17.3416 44.6094 15.9972C43.8032 14.6527 42.7215 13.4942 41.4353 12.5979C40.1492 11.7017 38.6878 11.088 37.1473 10.7972C35.6069 10.5064 34.0223 10.5452 32.498 10.911L29.5449 11.7147" stroke="#24634B" stroke-width="2" stroke-linecap="round" stroke-linejoin="round"/>
</svg>
